<svg width="182" height="27" viewBox="0 0 182 27" fill="none" xmlns="http://www.w3.org/2000/svg">
<path d="M15.1 5.19998V19.7H12.6V17.4C11.9 18.3 11.2 18.9 10.3 19.3C9.4 19.7 8.4 19.9 7.3 19.9C5.9 19.9 4.6 19.6 3.5 19C2.4 18.4 1.5 17.5 0.900002 16.4C0.300002 15.3 0 14 0 12.5C0 11 0.300002 9.69998 0.900002 8.59998C1.5 7.49998 2.4 6.59998 3.5 5.99998C4.6 5.39998 5.9 5.09998 7.3 5.09998C8.3 5.09998 9.3 5.29998 10.2 5.69998C11.1 6.09998 11.8 6.69998 12.4 7.39998V5.19998H15.1ZM10.1 17C10.8 16.6 11.4 16 11.9 15.2C12.3 14.4 12.5 13.5 12.5 12.5C12.5 11.5 12.3 10.6 11.9 9.79998C11.5 8.99998 10.9 8.39998 10.1 7.99998C9.3 7.59998 8.5 7.39998 7.6 7.39998C6.7 7.39998 5.8 7.59998 5.1 7.99998C4.4 8.39998 3.8 8.99998 3.3 9.79998C2.9 10.6 2.7 11.5 2.7 12.5C2.7 13.5 2.9 14.4 3.3 15.2C3.7 16 4.3 16.6 5.1 17C5.8 17.4 6.7 17.6 7.6 17.6C8.5 17.6 9.3 17.4 10.1 17Z" fill="#13AE8D"/>
<path d="M48.5996 6.99998C49.6996 7.59998 50.5996 8.49998 51.1996 9.59998C51.7996 10.7 52.0996 12 52.0996 13.5C52.0996 15 51.7996 16.3 51.1996 17.4C50.5996 18.5 49.6996 19.4 48.5996 20C47.4996 20.6 46.1996 20.9 44.7996 20.9C43.7996 20.9 42.7996 20.7 41.8996 20.3C40.9996 19.9 40.2996 19.3 39.6996 18.5V26H37.0996V6.19998H39.5996V8.49998C40.1996 7.69998 40.8996 7.09998 41.7996 6.69998C42.6996 6.29998 43.6996 6.09998 44.7996 6.09998C46.1996 6.09998 47.3996 6.39998 48.5996 6.99998ZM47.0996 18C47.7996 17.6 48.3996 17 48.8996 16.2C49.2996 15.4 49.4996 14.5 49.4996 13.5C49.4996 12.5 49.2996 11.6 48.8996 10.8C48.4996 9.99998 47.8996 9.39998 47.0996 8.99998C46.3996 8.59998 45.4996 8.39998 44.5996 8.39998C43.6996 8.39998 42.8996 8.59998 42.0996 8.99998C41.3996 9.39998 40.7996 9.99998 40.2996 10.8C39.8996 11.6 39.6996 12.5 39.6996 13.5C39.6996 14.5 39.8996 15.4 40.2996 16.2C40.6996 17 41.2996 17.6 42.0996 18C42.8996 18.4 43.6996 18.6 44.5996 18.6C45.4996 18.6 46.2996 18.4 47.0996 18Z" fill="#13AE8D"/>
<path d="M30.5996 5.99998C31.6996 6.59998 32.5996 7.49998 33.1996 8.59998C33.7996 9.69998 34.0996 11 34.0996 12.5C34.0996 14 33.7996 15.3 33.1996 16.4C32.5996 17.5 31.6996 18.4 30.5996 19C29.4996 19.6 28.1996 19.9 26.7996 19.9C25.7996 19.9 24.7996 19.7 23.8996 19.3C22.9996 18.9 22.2996 18.3 21.6996 17.5V25H19.0996V5.19998H21.5996V7.49998C22.1996 6.69998 22.8996 6.09998 23.7996 5.69998C24.6996 5.29998 25.6996 5.09998 26.7996 5.09998C28.1996 5.09998 29.3996 5.39998 30.5996 5.99998ZM29.0996 17C29.7996 16.6 30.3996 16 30.8996 15.2C31.2996 14.4 31.4996 13.5 31.4996 12.5C31.4996 11.5 31.2996 10.6 30.8996 9.79998C30.4996 8.99998 29.8996 8.39998 29.0996 7.99998C28.3996 7.59998 27.4996 7.39998 26.5996 7.39998C25.6996 7.39998 24.8996 7.59998 24.0996 7.99998C23.3996 8.39998 22.7996 8.99998 22.2996 9.79998C21.8996 10.6 21.6996 11.5 21.6996 12.5C21.6996 13.5 21.8996 14.4 22.2996 15.2C22.6996 16 23.2996 16.6 24.0996 17C24.8996 17.4 25.6996 17.6 26.5996 17.6C27.4996 17.6 28.2996 17.4 29.0996 17Z" fill="#13AE8D"/>
<path d="M56.9002 19.8C56.1002 19 55.7002 17.9 55.7002 16.5V0.400024H58.3002V16.3C58.3002 17.1 58.5002 17.7 58.9002 18.1C59.3002 18.5 59.8002 18.7 60.6002 18.7C61.1002 18.7 61.5002 18.6 61.9002 18.4L62.0002 20.6C61.4002 20.8 60.8002 20.9 60.1002 20.9C58.8002 20.9 57.7002 20.5 56.9002 19.8Z" fill="#13AE8D"/>
<path d="M75.1004 16.9L76.5004 18.6C75.9004 19.4 75.0004 20 74.1004 20.4C73.1004 20.8 72.0004 21 70.8004 21C69.3004 21 67.9004 20.7 66.7004 20.1C65.5004 19.5 64.6004 18.6 63.9004 17.5C63.3004 16.4 62.9004 15.1 62.9004 13.7C62.9004 12.3 63.2004 11 63.8004 9.90002C64.4004 8.80002 65.3004 7.90002 66.4004 7.30002C67.5004 6.70002 68.8004 6.40002 70.1004 6.40002C71.4004 6.40002 72.6004 6.70002 73.7004 7.30002C74.8004 7.90002 75.6004 8.70002 76.3004 9.80002C76.9004 10.9 77.3004 12.1 77.3004 13.5L65.7004 15.8C66.1004 16.8 66.7004 17.6 67.6004 18.1C68.5004 18.6 69.5004 18.9 70.7004 18.9C72.6004 18.6 74.0004 18 75.1004 16.9ZM67.8004 8.90002C67.1004 9.30002 66.5004 9.90002 66.1004 10.7C65.7004 11.5 65.5004 12.3 65.5004 13.3V13.6L74.8004 11.8C74.6004 10.7 74.0004 9.90002 73.2004 9.20002C72.4004 8.50002 71.4004 8.20002 70.2004 8.20002C69.4004 8.30002 68.5004 8.50002 67.8004 8.90002Z" fill="#13AE8D"/>
<path d="M88.2998 2.9C87.9998 2.6 87.7998 2.2 87.7998 1.7C87.7998 1.2 87.9998 0.8 88.2998 0.5C88.5998 0.2 89.0998 0 89.5998 0C90.0998 0 90.4998 0.2 90.8998 0.5C91.1998 0.8 91.3998 1.2 91.3998 1.7C91.3998 2.2 91.1998 2.6 90.8998 2.9C90.5998 3.2 90.0998 3.4 89.5998 3.4C89.0998 3.4 88.6998 3.3 88.2998 2.9ZM88.2998 6.2H90.8998V20.7H88.2998V6.2Z" fill="#3D3E3E"/>
<path d="M108.1 7.69998C109.2 8.79998 109.7 10.3 109.7 12.4V20.8H107.1V12.7C107.1 11.3 106.8 10.2 106.1 9.49998C105.4 8.79998 104.5 8.39998 103.2 8.39998C101.8 8.39998 100.6 8.79998 99.8 9.59998C99 10.4 98.6 11.6 98.6 13.2V20.7H96V6.19998H98.5V8.39998C99 7.59998 99.7 7.09998 100.7 6.69998C101.6 6.29998 102.6 6.09998 103.8 6.09998C105.6 6.09998 107 6.59998 108.1 7.69998Z" fill="#3D3E3E"/>
<path d="M115.4 20.4C114.3 20.1 113.4 19.7 112.8 19.2L113.9 17.1C114.5 17.6 115.3 17.9 116.2 18.2C117.1 18.5 118 18.6 119 18.6C121.3 18.6 122.5 17.9 122.5 16.6C122.5 16.2 122.3 15.8 122 15.6C121.7 15.3 121.3 15.2 120.8 15C120.3 14.9 119.7 14.7 118.8 14.6C117.6 14.4 116.7 14.2 115.9 14C115.2 13.8 114.5 13.4 114 12.8C113.5 12.2 113.2 11.4 113.2 10.4C113.2 9.1 113.7 8 114.8 7.2C115.9 6.4 117.4 6 119.2 6C120.2 6 121.1 6.1 122.1 6.4C123.1 6.6 123.9 7 124.5 7.4L123.4 9.5C122.2 8.7 120.8 8.3 119.2 8.3C118.1 8.3 117.2 8.5 116.6 8.8C116 9.1 115.7 9.7 115.7 10.3C115.7 10.8 115.9 11.2 116.2 11.4C116.5 11.6 116.9 11.9 117.4 12C117.9 12.1 118.6 12.3 119.4 12.4C120.6 12.6 121.5 12.8 122.2 13C122.9 13.2 123.5 13.6 124.1 14.2C124.6 14.7 124.9 15.5 124.9 16.5C124.9 17.8 124.3 18.9 123.2 19.6C122.1 20.4 120.5 20.8 118.6 20.8C117.6 20.9 116.5 20.8 115.4 20.4Z" fill="#3D3E3E"/>
<path d="M128.4 2.9C128.1 2.6 127.9 2.2 127.9 1.7C127.9 1.2 128.1 0.8 128.4 0.5C128.7 0.2 129.2 0 129.7 0C130.2 0 130.6 0.2 131 0.5C131.3 0.8 131.5 1.2 131.5 1.7C131.5 2.2 131.3 2.6 131 2.9C130.7 3.2 130.2 3.4 129.7 3.4C129.2 3.4 128.8 3.3 128.4 2.9ZM128.4 6.2H131V20.7H128.4V6.2Z" fill="#3D3E3E"/>
<path d="M150 6.20002V18.8C150 21.3 149.4 23.2 148.1 24.4C146.8 25.6 145 26.2 142.4 26.2C141 26.2 139.7 26 138.5 25.6C137.3 25.2 136.2 24.7 135.5 24L136.8 22C137.5 22.6 138.3 23 139.3 23.4C140.3 23.7 141.3 23.9 142.4 23.9C144.1 23.9 145.4 23.5 146.2 22.7C147 21.9 147.4 20.7 147.4 19V17.8C146.8 18.6 146 19.1 145.1 19.5C144.2 19.9 143.2 20.1 142.1 20.1C140.7 20.1 139.5 19.8 138.3 19.2C137.2 18.6 136.3 17.8 135.7 16.7C135.1 15.6 134.7 14.4 134.7 13C134.7 11.6 135 10.4 135.7 9.30002C136.3 8.20002 137.2 7.40002 138.3 6.80002C139.4 6.20002 140.7 5.90002 142.1 5.90002C143.2 5.90002 144.2 6.10002 145.2 6.50002C146.2 6.90002 146.9 7.50002 147.5 8.30002V6.00002H150V6.20002ZM145 17.3C145.8 16.9 146.4 16.3 146.8 15.6C147.2 14.9 147.4 14.1 147.4 13.1C147.4 11.7 146.9 10.6 146 9.70002C145.1 8.80002 143.9 8.40002 142.4 8.40002C140.9 8.40002 139.7 8.80002 138.8 9.70002C137.9 10.6 137.4 11.7 137.4 13.1C137.4 14 137.6 14.8 138 15.6C138.4 16.3 139 16.9 139.8 17.3C140.6 17.7 141.4 17.9 142.4 17.9C143.3 17.9 144.2 17.7 145 17.3Z" fill="#3D3E3E"/>
<path d="M167.2 7.70002C168.3 8.80002 168.8 10.3 168.8 12.4V20.8H166.2V12.7C166.2 11.3 165.9 10.2 165.2 9.50002C164.5 8.80002 163.6 8.40002 162.3 8.40002C160.9 8.40002 159.7 8.80002 158.9 9.60002C158.1 10.4 157.7 11.6 157.7 13.2V20.7H155.1V0.400024H157.7V8.30002C158.2 7.60002 159 7.10002 159.9 6.70002C160.8 6.30002 161.8 6.10002 162.9 6.10002C164.6 6.10002 166.1 6.60002 167.2 7.70002Z" fill="#3D3E3E"/>
<path d="M181.3 19.9C180.9 20.2 180.4 20.5 179.9 20.7C179.3 20.9 178.7 21 178.1 21C176.6 21 175.5 20.6 174.7 19.8C173.9 19 173.5 17.9 173.5 16.4V3H176.1V6.2H180.3V8.4H176.2V16.3C176.2 17.1 176.4 17.7 176.8 18.1C177.2 18.5 177.8 18.7 178.5 18.7C179.3 18.7 180 18.5 180.6 18L181.3 19.9Z" fill="#3D3E3E"/>
</svg>
