<svg width="351" height="700" viewBox="0 0 351 700" fill="none" xmlns="http://www.w3.org/2000/svg">
<path d="M349.427 371.426C343.223 371.254 337.449 368.754 333.141 364.27C328.832 359.787 326.592 353.924 326.678 347.717C326.85 341.509 329.349 335.732 333.83 331.422C338.311 327.111 344.257 324.869 350.375 324.955C350.547 324.955 350.72 324.955 350.978 324.955V334.267C350.72 334.267 350.461 334.18 350.203 334.18C346.497 334.094 342.964 335.474 340.293 338.06C337.622 340.647 336.07 344.095 335.984 347.803C335.898 351.51 337.277 355.045 339.862 357.718C342.447 360.39 345.894 361.942 349.6 362.029C350.03 362.029 350.547 362.029 350.978 362.029V371.34C350.634 371.34 350.289 371.34 349.944 371.34C349.772 371.426 349.6 371.426 349.427 371.426Z" fill="#F4F4F4"/>
<path d="M346.842 398.843C345.032 398.843 343.137 398.671 341.068 398.24C339 397.809 336.76 397.378 334.605 396.688C329.78 395.05 325.04 392.549 320.473 389.015C317.974 387.118 315.992 385.307 314.269 383.324L313.924 382.807C309.874 376.427 308.84 369.357 307.892 362.546C307.806 361.856 307.72 361.166 307.634 360.563C307.203 357.373 305.393 354.355 303.411 351.165C302.894 350.303 302.377 349.527 301.946 348.665C296.69 339.354 301.774 326.335 309.271 317.541C312.459 313.747 316.595 311.85 320.301 310.04C322.283 309.091 324.179 308.229 325.73 307.108C327.884 303.918 331.159 301.418 335.122 299.78C338.914 298.228 343.223 297.538 347.531 297.883H347.876L348.221 297.969C349.169 298.228 350.03 298.487 350.892 298.831V309.35C349.513 308.315 348.048 307.539 346.411 307.108C343.74 306.936 340.982 307.453 338.569 308.402C336.07 309.436 334.175 310.902 333.054 312.799L332.624 313.575L331.934 314.092C329.435 315.989 326.764 317.196 324.265 318.403C321.076 319.955 318.233 321.248 316.337 323.49C311.08 329.611 307.117 338.922 310.046 344.009C310.477 344.785 310.908 345.561 311.425 346.337C313.579 349.958 316.078 354.097 316.854 359.183C316.94 359.873 317.026 360.563 317.113 361.253C317.974 367.288 318.75 372.978 321.593 377.548C322.8 378.927 324.265 380.22 326.074 381.6C329.866 384.445 333.744 386.514 337.535 387.808C339.173 388.325 341.068 388.756 342.792 389.101C345.205 389.532 347.359 389.618 349.255 389.359L349.772 389.273C350.116 389.273 350.461 389.101 350.978 388.928V398.498C350.892 398.498 350.72 398.499 350.634 398.585C349.427 398.671 348.135 398.843 346.842 398.843Z" fill="#F4F4F4"/>
<path d="M336.846 425.484C333.571 424.881 330.125 424.191 326.85 423.07C319.525 420.656 312.201 416.69 304.962 411.172C301.084 408.241 297.982 405.31 295.569 402.378L295.311 402.033L295.139 401.688C289.882 392.549 289.107 382.376 288.331 372.547C288.159 370.392 287.986 368.322 287.814 366.339C287.211 360.304 283.161 355.217 278.938 349.872C278.335 349.182 277.818 348.406 277.215 347.717C267.305 335.043 275.319 314.782 286.952 301.332C291.519 296.072 297.379 293.658 303.066 291.331C306.772 289.865 310.219 288.399 313.062 286.33C315.648 280.984 320.129 276.76 326.074 274.001C331.676 271.414 338.225 270.294 344.601 270.811H345.032L345.463 270.983C347.445 271.587 349.341 272.363 350.978 273.311V284.692C348.652 282.623 346.239 280.984 343.223 280.036C338.569 279.691 333.916 280.553 329.866 282.364C325.557 284.347 322.541 287.278 320.904 291.072L320.473 292.106L319.611 292.796C315.561 296.159 310.908 298.055 306.427 299.866C301.515 301.849 296.948 303.746 293.76 307.367C285.746 316.506 277.559 333.318 284.281 341.94C284.798 342.63 285.401 343.319 285.918 344.009C290.571 349.872 295.914 356.511 296.776 365.305C297.034 367.46 297.207 369.616 297.379 371.771C298.155 380.824 298.844 389.446 302.808 396.688C304.79 399.016 307.203 401.257 310.391 403.758C316.768 408.586 323.231 412.121 329.521 414.19C332.279 415.138 335.209 415.656 338.397 416.259C342.706 417.035 346.153 417.121 349.513 416.432L350.117 416.345C350.375 416.345 350.547 416.259 350.806 416.259V425.657C348.824 426.002 346.842 426.26 344.688 426.26C342.275 426.26 339.603 426.002 336.846 425.484Z" fill="#F4F4F4"/>
<path d="M332.538 452.729L331.935 452.643C327.626 451.867 323.231 451.005 318.922 449.539C309.099 446.263 299.189 440.831 289.365 433.416C284.023 429.364 279.973 425.571 276.698 421.518L276.44 421.174L276.267 420.829C269.718 408.844 269.029 395.395 268.339 382.376C268.167 378.927 267.995 375.651 267.736 372.461C266.961 363.408 260.584 356.252 253.776 348.751C253.173 348.061 252.57 347.372 251.967 346.768C236.714 329.611 251.019 300.728 264.375 285.468C270.321 278.657 278.163 275.725 285.66 272.88C291.089 270.811 296.173 268.914 300.309 265.638C303.325 258.223 309.013 252.274 316.941 248.394C324.265 244.773 332.969 243.221 341.5 243.997L342.017 244.083L342.534 244.256C345.722 245.291 348.48 246.67 351.065 248.394V260.292C347.876 257.188 344.429 254.774 340.207 253.309C333.572 252.791 326.85 253.998 321.163 256.757C314.959 259.861 310.736 264.258 308.754 270.035L308.323 271.156L307.375 271.932C301.86 276.674 295.311 279.174 289.021 281.502C282.213 284.088 275.836 286.502 271.442 291.503C259.894 304.694 248.347 328.576 258.947 340.474C259.55 341.164 260.153 341.768 260.756 342.457C267.908 350.389 276.009 359.442 277.043 371.599C277.301 374.961 277.56 378.496 277.732 381.859C278.335 393.67 279.025 405.913 284.367 416.001C287.125 419.363 290.572 422.553 295.139 426.088C304.101 432.899 313.149 437.9 322.025 440.831C325.73 442.038 329.694 442.814 333.916 443.59L334.52 443.676C340.638 444.797 345.636 444.883 350.375 443.762L350.72 443.676H351.065C351.151 443.676 351.151 443.676 351.237 443.676V453.074C348.652 453.591 345.981 453.85 343.137 453.85C339.604 453.764 336.157 453.419 332.538 452.729Z" fill="#F4F4F4"/>
<path d="M328.229 479.887L327.109 479.715C321.766 478.68 316.251 477.646 310.994 475.922C298.672 471.869 286.177 464.972 273.768 455.574C267.047 450.487 261.962 445.659 257.912 440.572L257.654 440.228L257.481 439.796C249.64 424.881 249.037 408.069 248.433 391.86C248.261 387.118 248.089 382.721 247.744 378.324C246.796 366.167 237.576 356.597 228.614 347.285L226.718 345.389C206.898 324.697 224.908 288.485 241.798 269.259C249.123 260.896 258.86 257.447 268.339 254.085C275.491 251.498 282.385 249.084 287.728 244.601C291.089 235.117 298.069 227.444 307.892 222.443C316.94 217.787 327.798 215.89 338.397 216.925L338.914 217.011L339.431 217.184C343.826 218.649 347.618 220.719 350.978 223.219V235.462C346.928 231.41 342.447 228.047 337.018 226.15C328.315 225.374 319.525 227.013 312.201 230.806C304.101 234.944 298.672 240.98 296.259 248.739L295.914 249.946L294.966 250.808C288.073 256.93 279.714 259.947 271.614 262.793C262.91 265.896 254.724 268.828 248.95 275.38C233.784 292.624 218.962 323.662 233.612 338.922L235.421 340.819C245.073 350.82 255.93 362.115 257.137 377.634C257.481 382.203 257.654 386.945 257.826 391.515C258.343 406.517 258.946 422.036 265.582 435.055C269.201 439.452 273.596 443.59 279.542 448.16C291.175 457.04 302.808 463.42 314.097 467.127C318.836 468.679 323.748 469.628 329.004 470.576L330.125 470.748C338.053 472.214 344.602 472.214 350.806 470.748L351.151 470.662V480.146C347.876 480.836 344.602 481.181 341.069 481.181C336.932 481.181 332.796 480.75 328.229 479.887Z" fill="#F4F4F4"/>
<path d="M324.006 507.132L322.455 506.874C316.079 505.666 309.529 504.459 303.239 502.39C288.417 497.476 273.337 489.199 258.257 477.732C250.157 471.524 244.038 465.748 239.127 459.626L238.868 459.282L238.696 458.851C229.475 441.004 228.958 420.829 228.441 401.43C228.269 395.481 228.183 389.877 227.752 384.359C226.718 369.098 214.826 357.287 203.451 345.906L201.556 344.009C190.698 333.146 188.113 316.937 194.059 297.28C198.54 282.45 208.018 265.983 219.393 253.223C228.097 243.394 239.816 239.342 251.105 235.376C260.067 232.272 268.598 229.254 275.319 223.65C279.111 212.097 287.297 202.786 299.016 196.664C309.788 191.06 322.714 188.646 335.381 189.939L335.898 190.025L336.415 190.198C342.016 192.095 346.756 194.94 350.978 198.216V210.717C346.066 205.717 340.638 201.578 333.83 199.078C323.231 198.13 312.115 200.199 303.153 204.855C293.157 210.028 286.521 217.701 283.678 227.53L283.333 228.823L282.385 229.685C274.113 237.1 263.944 240.635 254.121 244.084C243.521 247.791 233.439 251.24 226.373 259.258C207.588 280.467 189.491 318.834 208.105 337.371L210 339.267C222.065 351.251 235.766 364.874 237.059 383.669C237.489 389.446 237.576 395.395 237.748 401.171C238.179 419.449 238.696 438.331 246.71 454.195C251.105 459.626 256.533 464.8 263.944 470.317C278.163 481.181 292.381 488.94 306.169 493.51C311.856 495.407 317.888 496.527 324.179 497.734L325.73 497.993C335.467 499.804 343.481 499.804 350.978 497.907V507.477C347.101 508.253 343.137 508.684 339 508.684C334.347 508.684 329.349 508.167 324.006 507.132Z" fill="#F4F4F4"/>
<path d="M319.698 534.377L317.716 534.032C310.305 532.652 302.722 531.187 295.397 528.773C278.163 523.082 260.411 513.34 242.746 499.89C233.267 492.648 226.115 485.923 220.427 478.68L220.169 478.336L219.996 477.904C209.397 457.126 208.966 433.589 208.622 410.914C208.535 403.758 208.363 396.947 207.932 390.308C206.726 371.857 192.335 357.976 178.375 344.44L176.393 342.543C147.784 314.868 173.808 263.137 196.988 236.927C207.071 225.547 220.686 220.977 233.87 216.494C244.642 212.873 254.81 209.338 262.824 202.441C267.046 188.818 276.439 177.869 290.054 170.626C302.549 163.988 317.63 161.229 332.365 162.781L332.882 162.867L333.399 163.039C340.207 165.453 345.98 168.988 351.064 173.127V185.887C345.291 179.938 338.914 174.937 330.814 172.006C318.233 170.799 304.962 173.299 294.363 178.903C282.385 185.197 274.63 194.422 271.355 206.32L271.01 207.614L270.062 208.476C260.497 217.27 248.433 221.322 236.886 225.288C224.305 229.599 212.413 233.565 203.968 243.135C181.564 268.397 160.193 313.919 182.856 335.905L184.752 337.802C199.315 351.855 215.774 367.719 217.153 389.704C217.584 396.602 217.756 403.844 217.842 410.741C218.187 432.209 218.618 454.453 228.01 473.249C233.181 479.715 239.73 485.836 248.433 492.475C265.237 505.321 282.04 514.547 298.327 519.892C305.048 522.134 312.028 523.427 319.439 524.807L321.507 525.151C332.796 527.307 342.275 527.307 351.064 525.065V534.549C346.583 535.498 342.016 535.929 337.191 535.929C331.676 536.187 325.902 535.584 319.698 534.377Z" fill="#F4F4F4"/>
<path d="M315.389 561.621L312.89 561.19C304.446 559.638 295.742 558 287.47 555.241C267.736 548.689 247.4 537.567 227.149 522.134C216.205 513.771 208.105 506.098 201.556 497.821L201.297 497.476L201.125 497.045C189.147 473.335 188.889 446.435 188.544 420.484C188.458 412.121 188.372 404.189 187.854 396.343C186.562 374.703 169.5 358.666 152.955 343.061L150.973 341.164C117.969 309.954 147.784 250.809 174.325 220.891C185.786 208.045 201.297 202.786 216.377 197.785C228.959 193.56 240.85 189.594 250.157 181.49C254.724 165.798 265.41 153.124 280.921 144.848C295.225 137.26 312.287 134.07 329.091 135.795L329.608 135.881L330.125 136.053C338.139 138.899 344.947 143.209 350.892 148.296V161.143C344.257 154.245 336.933 148.469 327.54 145.02C312.89 143.641 297.552 146.486 285.229 153.124C271.355 160.539 262.394 171.316 258.688 185.283L258.343 186.577L257.396 187.525C246.452 197.613 232.664 202.182 219.307 206.665C204.744 211.493 191.043 216.063 181.305 227.099C155.281 256.499 130.55 309.178 157.349 334.439L159.331 336.25C176.307 352.286 195.61 370.392 197.075 395.74C197.592 403.844 197.678 412.207 197.764 420.398C198.023 445.142 198.368 470.662 209.139 492.475C215.085 499.976 222.668 507.046 232.75 514.806C252.225 529.635 271.614 540.326 290.4 546.533C298.155 549.12 306.169 550.586 314.614 552.138L317.113 552.569C330.039 554.983 340.81 554.983 350.979 552.569V562.053C345.894 563.087 340.638 563.691 335.123 563.691C329.005 563.604 322.456 562.915 315.389 561.621Z" fill="#F4F4F4"/>
<path d="M311.167 588.866L308.151 588.349C298.672 586.624 288.934 584.728 279.628 581.71C257.395 574.382 234.473 561.794 211.552 544.292C199.229 534.894 190.095 526.186 182.77 516.961L182.511 516.616L182.339 516.185C168.982 489.544 168.81 459.282 168.552 430.14C168.465 420.484 168.379 411.431 167.862 402.465C166.483 377.72 146.75 359.442 127.706 341.768L125.724 339.957C88.239 305.212 121.846 238.738 151.92 204.941C164.674 190.543 182.167 184.766 199.143 179.162C213.533 174.42 227.149 169.937 237.748 160.539C242.746 142.778 254.552 128.466 272.044 119.069C288.073 110.447 307.289 106.826 326.161 108.895L326.678 108.981L327.195 109.154C336.501 112.516 344.171 117.517 350.978 123.552V136.485C343.567 128.553 335.209 122.086 324.523 118.12C307.892 116.482 290.313 119.845 276.353 127.346C260.584 135.795 250.415 148.296 246.279 164.333L245.934 165.626L244.9 166.574C232.664 177.955 216.98 183.128 201.9 188.042C185.441 193.474 169.844 198.561 158.728 211.149C128.998 244.601 101.079 304.522 131.928 333.146L133.91 334.956C153.385 352.976 175.445 373.409 176.996 401.947C177.513 411.172 177.6 420.829 177.686 430.14C177.944 458.161 178.117 487.044 190.267 511.702C197.075 520.237 205.606 528.255 217.067 537.05C239.127 553.862 261.101 566.018 282.385 573.002C291.089 575.847 300.137 577.572 309.702 579.382L312.718 579.899C327.281 582.658 339.431 582.658 350.806 579.899V589.383C345.119 590.59 339.259 591.194 333.054 591.194C326.333 591.108 319.008 590.332 311.167 588.866Z" fill="#F4F4F4"/>
<path d="M306.858 616.111L303.411 615.507C292.898 613.524 282.041 611.541 271.7 608.093C246.969 599.902 221.462 585.935 195.955 566.45C182.253 556.017 172.085 546.361 163.985 536.015L163.726 535.67L163.554 535.239C148.905 505.58 148.732 472.042 148.56 439.624C148.474 428.761 148.474 418.501 147.87 408.414C146.319 380.479 124.001 360.046 102.371 340.302L100.39 338.491C58.5098 300.211 95.9085 226.323 129.343 188.818C143.476 172.868 162.951 166.574 181.736 160.453C197.937 155.194 213.275 150.193 225.167 139.502C230.596 119.672 243.608 103.722 262.997 93.2036C280.49 83.8059 302.291 79.5813 322.973 81.8229L323.49 81.9091L324.007 82.0816C334.52 85.8751 343.223 91.6517 350.892 98.6352V111.654C342.62 102.774 333.227 95.4452 321.421 91.0481C302.722 89.1514 283.075 92.9449 267.391 101.394C249.64 110.964 238.351 125.018 233.784 143.123L233.44 144.417L232.405 145.365C218.876 158.039 201.383 163.729 184.494 169.247C166.053 175.282 148.646 180.973 136.151 194.94C102.802 232.444 71.608 299.607 106.508 331.594L108.49 333.405C130.377 353.407 155.195 376.082 157.005 407.896C157.608 418.242 157.608 429.106 157.694 439.538C157.866 470.749 157.953 503.08 171.482 530.67C179.065 540.24 188.63 549.292 201.556 559.121C226.201 577.917 250.76 591.453 274.544 599.298C284.281 602.488 294.363 604.385 305.049 606.368L308.496 606.972C324.696 609.989 338.225 610.076 350.892 607.058V616.542C344.602 617.921 338.053 618.611 331.159 618.611C323.662 618.525 315.562 617.749 306.858 616.111Z" fill="#F4F4F4"/>
<path d="M302.549 643.355L298.672 642.666C287.125 640.51 275.233 638.268 263.858 634.561C236.197 625.422 208.966 610.42 180.443 588.694C165.363 577.141 154.161 566.536 145.199 555.155L144.94 554.81L144.768 554.379C128.74 521.789 128.654 484.888 128.568 449.194C128.568 437.124 128.568 425.743 127.964 414.449C126.327 383.324 101.337 360.735 77.209 338.922L75.227 337.112C54.6318 318.489 49.4615 289.779 60.233 253.998C68.4194 226.754 85.9124 196.405 106.938 172.696C122.449 155.28 143.82 148.382 164.501 141.658C182.511 135.795 199.574 130.363 212.758 118.379C218.532 96.4797 232.836 78.8052 254.121 67.2521C273.251 56.8198 297.293 52.2503 319.956 54.7506L320.473 54.8368L320.99 55.0092C332.71 59.3201 342.447 65.8726 350.978 73.7184V86.7372C341.844 76.9084 331.503 68.804 318.405 63.8896C297.724 61.8204 275.922 65.9588 258.515 75.4427C238.868 86.1336 226.373 101.739 221.375 122L221.031 123.293L219.996 124.242C205.089 138.209 185.872 144.416 167.259 150.452C146.922 157.004 127.62 163.298 113.832 178.817C76.8643 220.374 42.3092 294.779 81.4314 330.128L83.4134 331.939C108.92 355.045 135.375 378.927 137.271 413.845C137.874 425.312 137.874 437.382 137.96 449.022C138.047 483.509 138.047 519.203 152.954 549.723C161.313 560.328 171.912 570.329 186.217 581.279C213.534 602.143 240.678 617.059 266.96 625.767C277.732 629.302 288.762 631.371 300.568 633.526L304.445 634.216C322.283 637.579 337.191 637.579 351.151 634.302V643.786C344.171 645.252 337.018 646.028 329.521 646.028C320.99 646.028 312.201 645.166 302.549 643.355Z" fill="#F4F4F4"/>
<path d="M298.327 670.6L294.019 669.824C281.437 667.496 268.425 665.082 256.103 661.03C225.943 651.115 196.127 634.647 164.933 610.938C148.474 598.35 136.237 586.711 126.5 574.295L126.155 573.951L125.896 573.519C108.49 537.998 108.49 497.735 108.49 458.764C108.49 445.487 108.49 432.899 107.886 420.57C106.077 386.256 78.5017 361.511 51.7883 337.629L49.7202 335.819C27.2292 315.644 21.5418 284.433 33.2613 245.463C42.2232 215.718 61.2673 182.525 84.2753 156.746C101.165 137.778 124.432 130.363 147.009 123.121C166.828 116.741 185.528 110.706 200.091 97.6006C206.295 73.6322 221.806 54.3196 244.987 41.7318C265.84 30.3512 292.037 25.3506 316.768 28.0233L317.371 28.1095L317.888 28.282C330.987 33.1101 341.586 40.2662 350.892 48.9741V62.1653C340.896 51.3882 329.608 42.5078 315.217 37.1623C292.468 34.8345 268.512 39.404 249.468 49.8363C227.924 61.5618 214.223 78.8914 208.794 101.135L208.45 102.515L207.415 103.463C191.215 118.724 170.189 125.449 149.766 132.001C127.448 139.157 106.335 145.968 91.1691 162.953C69.0228 187.784 50.6681 219.684 42.137 248.136C34.7262 272.708 31.107 306.677 55.9246 328.921L57.9065 330.732C85.9987 355.907 115.125 381.945 117.107 420.139C117.796 432.813 117.71 446.004 117.71 458.851C117.71 496.614 117.624 535.584 133.91 569.036C143.131 580.675 154.678 591.625 170.361 603.609C200.694 626.802 229.648 642.666 258.774 652.322C270.494 656.202 282.644 658.443 295.484 660.857L299.878 661.633C319.267 665.254 335.64 665.341 350.806 661.72V671.203C343.223 672.842 335.468 673.618 327.195 673.618C318.319 673.531 308.754 672.497 298.327 670.6Z" fill="#F4F4F4"/>
<path d="M248.347 687.412L248.089 687.326C213.447 674.825 180.271 656.547 149.421 633.009C131.584 619.387 118.313 606.713 107.714 593.349L107.369 593.005L107.111 592.573C87.8943 553.345 88.1528 508.684 88.3252 465.489C88.4113 451.953 88.4113 439.107 87.9805 426.433C85.74 390.739 57.734 364.874 30.5897 339.871C28.5216 337.974 26.5396 336.077 24.4715 334.267C-0.259946 313.23 -6.37818 279.777 6.72001 237.531C16.2851 206.493 36.8803 170.282 61.6979 140.623L61.8703 140.364C80.4835 120.793 105.215 112.689 129.085 104.843C150.886 97.6868 171.481 90.9619 187.596 76.3049C194.231 50.2673 210.948 29.3166 236.024 15.6081C258.602 3.27899 286.866 -2.15268 313.666 0.778699L314.269 0.864915L314.786 1.03735C329.004 6.29659 340.638 14.0561 350.892 23.4538V36.4726C339.948 25.0919 327.626 15.7805 312.115 10.0039C287.383 7.41742 261.273 12.5042 240.505 23.7987C216.98 36.645 202.159 55.5266 196.299 79.9261L195.954 81.3055L194.92 82.2539C177.169 98.9801 154.161 106.567 131.928 113.809C108.059 121.569 85.5676 128.984 68.5917 146.744C44.5496 175.541 24.6438 210.545 15.4234 240.376C3.35929 279.346 8.44345 308.574 30.4174 327.283L30.5897 327.456C32.6579 329.352 34.6398 331.249 36.708 333.146C65.231 359.442 94.6157 386.601 97.0286 426.002V426.088C97.5456 439.021 97.4594 452.471 97.4594 465.576C97.2871 507.477 97.0286 550.844 115.125 588.09C125.121 600.764 137.788 612.748 154.85 625.767C184.924 648.701 217.239 666.548 250.932 678.704C265.495 683.015 280.403 686.464 295.397 688.792L295.656 688.878C314.872 693.103 333.399 693.103 350.72 689.05V698.534C347.962 699.138 345.205 699.655 342.361 700H305.307C301.515 699.483 297.638 698.793 293.76 697.931C278.594 695.344 263.255 691.809 248.347 687.412Z" fill="#F4F4F4"/>
</svg>
