<svg width="180" height="360" viewBox="0 0 180 360" fill="none" xmlns="http://www.w3.org/2000/svg">
<path d="M180.306 191.019C177.115 190.931 174.146 189.645 171.93 187.339C169.714 185.033 168.562 182.018 168.606 178.826C168.695 175.633 169.98 172.662 172.285 170.445C174.589 168.228 177.647 167.075 180.793 167.12C180.882 167.12 180.971 167.12 181.104 167.12V171.909C180.971 171.909 180.838 171.864 180.705 171.864C178.799 171.82 176.982 172.529 175.608 173.86C174.234 175.19 173.437 176.963 173.392 178.87C173.348 180.777 174.057 182.595 175.387 183.969C176.716 185.344 178.489 186.142 180.395 186.186C180.616 186.186 180.882 186.186 181.104 186.186V190.975C180.926 190.975 180.749 190.975 180.572 190.975C180.483 191.019 180.395 191.019 180.306 191.019Z" fill="#F4F4F4"/>
<path d="M178.976 205.119C178.046 205.119 177.071 205.031 176.007 204.809C174.944 204.587 173.791 204.366 172.683 204.011C170.202 203.168 167.764 201.883 165.415 200.065C164.13 199.089 163.111 198.158 162.225 197.138L162.047 196.872C159.964 193.591 159.433 189.955 158.945 186.452C158.901 186.097 158.856 185.743 158.812 185.432C158.591 183.792 157.66 182.24 156.641 180.599C156.375 180.156 156.109 179.757 155.887 179.313C153.184 174.525 155.799 167.829 159.654 163.307C161.294 161.356 163.421 160.38 165.327 159.449C166.346 158.961 167.321 158.518 168.119 157.941C169.227 156.301 170.911 155.015 172.949 154.172C174.899 153.374 177.115 153.02 179.331 153.197H179.508L179.686 153.241C180.173 153.374 180.616 153.507 181.059 153.685V159.094C180.35 158.562 179.597 158.163 178.755 157.941C177.381 157.853 175.963 158.119 174.722 158.606C173.437 159.139 172.462 159.892 171.886 160.868L171.664 161.267L171.31 161.533C170.024 162.508 168.651 163.129 167.365 163.75C165.726 164.548 164.263 165.213 163.288 166.366C160.585 169.514 158.546 174.303 160.053 176.919C160.275 177.318 160.496 177.717 160.762 178.116C161.87 179.979 163.155 182.107 163.554 184.723C163.598 185.078 163.643 185.432 163.687 185.787C164.13 188.891 164.529 191.817 165.992 194.167C166.612 194.877 167.365 195.542 168.296 196.251C170.246 197.715 172.24 198.779 174.19 199.444C175.032 199.71 176.007 199.932 176.894 200.109C178.134 200.331 179.242 200.375 180.217 200.242L180.483 200.198C180.661 200.198 180.838 200.109 181.104 200.02V204.942C181.059 204.942 180.971 204.942 180.926 204.986C180.306 205.031 179.641 205.119 178.976 205.119Z" fill="#F4F4F4"/>
<path d="M173.836 218.821C172.152 218.51 170.379 218.155 168.695 217.579C164.928 216.337 161.161 214.298 157.439 211.46C155.444 209.952 153.849 208.445 152.608 206.937L152.475 206.76L152.386 206.583C149.683 201.883 149.284 196.65 148.885 191.596C148.797 190.487 148.708 189.423 148.619 188.403C148.309 185.299 146.226 182.683 144.055 179.934C143.745 179.579 143.479 179.18 143.168 178.826C138.072 172.308 142.193 161.888 148.176 154.971C150.525 152.266 153.539 151.024 156.464 149.827C158.369 149.073 160.142 148.32 161.604 147.255C162.934 144.506 165.238 142.334 168.296 140.915C171.177 139.585 174.545 139.008 177.824 139.274H178.046L178.268 139.363C179.287 139.673 180.262 140.072 181.104 140.56V146.413C179.907 145.349 178.666 144.506 177.115 144.019C174.722 143.841 172.329 144.285 170.246 145.216C168.03 146.236 166.479 147.743 165.637 149.694L165.416 150.226L164.972 150.581C162.89 152.31 160.496 153.286 158.192 154.217C155.666 155.237 153.317 156.212 151.677 158.074C147.556 162.774 143.346 171.421 146.802 175.855C147.068 176.21 147.379 176.564 147.644 176.919C150.038 179.934 152.785 183.348 153.228 187.871C153.361 188.98 153.45 190.088 153.539 191.197C153.937 195.852 154.292 200.286 156.331 204.011C157.35 205.208 158.591 206.361 160.231 207.647C163.51 210.13 166.834 211.948 170.069 213.012C171.487 213.5 172.994 213.766 174.634 214.076C176.849 214.475 178.622 214.52 180.351 214.165L180.661 214.12C180.794 214.12 180.882 214.076 181.015 214.076V218.909C179.996 219.087 178.977 219.22 177.869 219.22C176.628 219.22 175.254 219.087 173.836 218.821Z" fill="#F4F4F4"/>
<path d="M171.62 232.832L171.31 232.788C169.094 232.389 166.833 231.945 164.618 231.191C159.565 229.507 154.469 226.713 149.417 222.9C146.669 220.816 144.586 218.865 142.902 216.781L142.769 216.604L142.681 216.426C139.312 210.263 138.958 203.346 138.603 196.65C138.515 194.877 138.426 193.192 138.293 191.551C137.894 186.896 134.615 183.215 131.114 179.358C130.804 179.003 130.493 178.648 130.183 178.338C122.339 169.514 129.696 154.66 136.565 146.812C139.623 143.309 143.656 141.802 147.511 140.338C150.303 139.274 152.918 138.299 155.045 136.614C156.596 132.8 159.521 129.741 163.598 127.746C167.365 125.883 171.841 125.085 176.229 125.484L176.495 125.529L176.761 125.617C178.4 126.149 179.818 126.859 181.148 127.746V133.865C179.508 132.268 177.735 131.027 175.564 130.273C172.152 130.007 168.695 130.628 165.77 132.047C162.579 133.643 160.407 135.904 159.388 138.875L159.167 139.451L158.679 139.851C155.843 142.289 152.475 143.575 149.24 144.772C145.738 146.103 142.459 147.344 140.199 149.916C134.26 156.7 128.322 168.982 133.773 175.101C134.083 175.456 134.393 175.766 134.704 176.121C138.382 180.2 142.548 184.856 143.079 191.108C143.212 192.837 143.345 194.655 143.434 196.384C143.744 202.459 144.099 208.755 146.846 213.943C148.265 215.672 150.037 217.313 152.386 219.131C156.995 222.634 161.648 225.206 166.213 226.713C168.119 227.334 170.157 227.733 172.329 228.132L172.639 228.176C175.786 228.753 178.356 228.797 180.793 228.221L180.971 228.176H181.148C181.192 228.176 181.192 228.176 181.237 228.176V233.009C179.907 233.275 178.533 233.408 177.071 233.408C175.254 233.364 173.481 233.187 171.62 232.832Z" fill="#F4F4F4"/>
<path d="M169.404 246.799L168.828 246.711C166.08 246.179 163.244 245.646 160.541 244.76C154.203 242.676 147.777 239.128 141.396 234.295C137.939 231.679 135.324 229.196 133.241 226.58L133.108 226.403L133.02 226.181C128.987 218.51 128.677 209.864 128.366 201.528C128.278 199.089 128.189 196.828 128.012 194.566C127.524 188.314 122.782 183.393 118.173 178.604L117.198 177.628C107.005 166.987 116.268 148.364 124.954 138.476C128.721 134.175 133.729 132.401 138.604 130.672C142.282 129.342 145.827 128.1 148.575 125.795C150.303 120.917 153.893 116.971 158.945 114.399C163.598 112.005 169.182 111.029 174.633 111.562L174.899 111.606L175.165 111.695C177.425 112.448 179.375 113.512 181.104 114.798V121.095C179.021 119.011 176.716 117.281 173.924 116.306C169.448 115.907 164.928 116.749 161.161 118.7C156.995 120.829 154.203 123.932 152.962 127.923L152.785 128.544L152.298 128.987C148.752 132.135 144.453 133.687 140.288 135.151C135.812 136.747 131.601 138.254 128.632 141.624C120.832 150.492 113.21 166.455 120.744 174.303L121.674 175.278C126.638 180.422 132.222 186.231 132.842 194.212C133.02 196.562 133.108 199 133.197 201.351C133.463 209.066 133.773 217.047 137.185 223.742C139.047 226.004 141.307 228.132 144.365 230.482C150.348 235.049 156.33 238.33 162.136 240.237C164.573 241.035 167.1 241.523 169.803 242.011L170.379 242.099C174.456 242.853 177.824 242.853 181.015 242.099L181.192 242.055V246.932C179.508 247.287 177.824 247.464 176.007 247.464C173.88 247.464 171.753 247.243 169.404 246.799Z" fill="#F4F4F4"/>
<path d="M167.232 260.811L166.435 260.678C163.155 260.057 159.787 259.436 156.552 258.372C148.929 255.845 141.174 251.588 133.418 245.691C129.252 242.498 126.106 239.527 123.58 236.379L123.447 236.202L123.358 235.98C118.616 226.802 118.35 216.426 118.085 206.45C117.996 203.39 117.952 200.508 117.73 197.67C117.198 189.822 111.082 183.747 105.233 177.895L104.258 176.919C98.6736 171.332 97.3441 162.996 100.402 152.887C102.706 145.26 107.581 136.791 113.431 130.229C117.907 125.174 123.934 123.09 129.74 121.05C134.349 119.454 138.736 117.902 142.193 115.02C144.143 109.078 148.353 104.29 154.38 101.142C159.92 98.2594 166.568 97.0179 173.082 97.683L173.348 97.7273L173.614 97.816C176.495 98.7915 178.932 100.255 181.104 101.94V108.369C178.577 105.797 175.785 103.669 172.284 102.383C166.833 101.895 161.116 102.96 156.508 105.354C151.367 108.014 147.954 111.961 146.492 117.015L146.315 117.68L145.827 118.124C141.573 121.937 136.343 123.755 131.291 125.529C125.84 127.435 120.655 129.209 117.021 133.333C107.36 144.24 98.0532 163.972 107.626 173.505L108.601 174.48C114.805 180.644 121.851 187.649 122.516 197.316C122.738 200.286 122.782 203.346 122.871 206.317C123.092 215.717 123.358 225.427 127.48 233.586C129.74 236.379 132.532 239.04 136.343 241.878C143.656 247.464 150.968 251.455 158.059 253.805C160.984 254.781 164.086 255.357 167.321 255.978L168.119 256.111C173.126 257.042 177.248 257.042 181.104 256.066V260.988C179.109 261.387 177.071 261.609 174.943 261.609C172.55 261.609 169.98 261.343 167.232 260.811Z" fill="#F4F4F4"/>
<path d="M165.017 274.822L163.998 274.645C160.186 273.935 156.286 273.182 152.519 271.94C143.656 269.014 134.527 264.003 125.442 257.086C120.567 253.362 116.888 249.903 113.963 246.178L113.83 246.001L113.742 245.779C108.291 235.093 108.069 222.989 107.892 211.327C107.848 207.647 107.759 204.144 107.537 200.73C106.917 191.241 99.516 184.102 92.3366 177.141L91.3173 176.165C76.604 161.932 89.9878 135.328 101.909 121.848C107.094 115.995 114.096 113.645 120.877 111.34C126.417 109.477 131.646 107.66 135.767 104.112C137.939 97.1065 142.77 91.4753 149.772 87.7507C156.198 84.3365 163.953 82.9176 171.531 83.7158L171.797 83.7601L172.063 83.8488C175.564 85.0903 178.534 86.9083 181.148 89.0366V95.599C178.179 92.5395 174.9 89.9677 170.734 88.4602C164.263 87.8394 157.439 89.1253 151.988 92.0074C145.827 95.2442 141.839 99.9886 140.155 106.108L139.978 106.773L139.49 107.216C134.571 111.739 128.366 113.823 122.428 115.862C115.958 118.079 109.842 120.119 105.499 125.041C93.9764 138.033 82.9857 161.444 94.6411 172.751L95.6161 173.726C103.106 180.954 111.57 189.113 112.279 200.419C112.501 203.967 112.59 207.691 112.634 211.238C112.811 222.279 113.033 233.719 117.863 243.385C120.522 246.711 123.89 249.859 128.366 253.273C137.008 259.88 145.65 264.624 154.026 267.373C157.483 268.526 161.073 269.191 164.884 269.901L165.947 270.078C171.753 271.186 176.628 271.186 181.148 270.034V274.911C178.844 275.399 176.495 275.62 174.013 275.62C171.177 275.753 168.208 275.443 165.017 274.822Z" fill="#F4F4F4"/>
<path d="M162.801 288.834L161.516 288.612C157.173 287.814 152.696 286.972 148.442 285.553C138.293 282.183 127.835 276.463 117.42 268.526C111.792 264.225 107.626 260.279 104.258 256.022L104.125 255.845L104.036 255.623C97.8761 243.429 97.7432 229.595 97.5659 216.249C97.5216 211.948 97.4773 207.869 97.2114 203.834C96.5466 192.704 87.7718 184.457 79.2629 176.431L78.2436 175.456C61.2701 159.405 76.6039 128.987 90.2536 113.601C96.1477 106.994 104.125 104.29 111.88 101.718C118.351 99.5453 124.466 97.5056 129.253 93.3376C131.601 85.2677 137.097 78.7497 145.074 74.493C152.431 70.5911 161.205 68.9505 169.847 69.8373L170.113 69.8816L170.379 69.9703C174.501 71.4336 178.002 73.6506 181.059 76.2666V82.8733C177.647 79.3261 173.88 76.3553 169.05 74.5817C161.516 73.8723 153.627 75.3355 147.29 78.7497C140.155 82.563 135.546 88.1055 133.64 95.2886L133.463 95.9537L132.975 96.4415C127.347 101.629 120.256 103.979 113.387 106.285C105.898 108.768 98.8511 111.118 93.8432 116.794C80.4595 131.914 67.7404 159.006 81.5231 171.997L82.5424 172.928C91.2728 181.176 101.2 190.487 101.953 203.523C102.219 207.691 102.264 211.992 102.308 216.205C102.441 228.93 102.618 242.055 108.158 253.273C111.216 257.131 115.115 260.766 120.301 264.757C130.316 272.384 140.288 277.882 149.949 281.074C153.937 282.405 158.059 283.158 162.402 283.956L163.687 284.178C170.335 285.42 175.874 285.42 181.104 284.178V289.056C178.489 289.588 175.786 289.898 172.949 289.898C169.803 289.854 166.435 289.499 162.801 288.834Z" fill="#F4F4F4"/>
<path d="M160.629 302.845L159.078 302.579C154.203 301.693 149.195 300.717 144.409 299.165C132.975 295.396 121.187 288.923 109.398 279.921C103.061 275.088 98.3634 270.61 94.5964 265.866L94.4635 265.688L94.3748 265.467C87.5057 251.765 87.417 236.202 87.2841 221.215C87.2398 216.249 87.1954 211.593 86.9295 206.982C86.2205 194.256 76.0718 184.856 66.2777 175.766L65.2584 174.835C45.9805 156.966 63.2642 122.78 78.7309 105.398C85.2898 97.9934 94.2862 95.0226 103.017 92.1405C110.418 89.7018 117.42 87.3961 122.871 82.563C125.441 73.4289 131.513 66.0684 140.509 61.2353C148.752 56.8013 158.635 54.939 168.34 56.0031L168.606 56.0475L168.872 56.1362C173.658 57.8654 177.602 60.4372 181.104 63.541V70.192C177.292 66.1127 172.993 62.7872 167.498 60.7476C158.945 59.9051 149.904 61.6344 142.725 65.492C134.615 69.8373 129.385 76.2666 127.258 84.5139L127.081 85.179L126.549 85.6668C120.256 91.5197 112.19 94.1801 104.435 96.7075C95.9702 99.5009 87.9488 102.117 82.2319 108.591C66.9425 125.795 52.5837 156.611 68.4493 171.332L69.4686 172.263C79.4842 181.53 90.8294 192.039 91.6271 206.716C91.8931 211.46 91.9374 216.426 91.9817 221.215C92.1147 235.626 92.2033 250.48 98.452 263.161C101.953 267.551 106.34 271.674 112.235 276.197C123.58 284.843 134.881 291.095 145.827 294.687C150.303 296.15 154.956 297.037 159.876 297.968L161.427 298.234C168.916 299.653 175.165 299.653 181.015 298.234V303.111C178.09 303.732 175.076 304.043 171.886 304.043C168.429 303.998 164.662 303.599 160.629 302.845Z" fill="#F4F4F4"/>
<path d="M158.413 316.857L156.641 316.547C151.234 315.527 145.65 314.507 140.332 312.733C127.613 308.521 114.495 301.338 101.377 291.317C94.3308 285.952 89.1014 280.986 84.9355 275.665L84.8026 275.487L84.714 275.266C77.18 260.013 77.0914 242.764 77.0028 226.092C76.9584 220.506 76.9584 215.229 76.6482 210.041C75.8505 195.675 64.3724 185.166 53.2488 175.012L52.2295 174.081C30.6913 154.394 49.925 116.395 67.12 97.1066C74.3881 88.9036 84.4037 85.6668 94.0649 82.5187C102.397 79.8139 110.285 77.2422 116.401 71.744C119.193 61.5457 125.885 53.3428 135.856 47.9332C144.852 43.1002 156.065 40.9275 166.701 42.0803L166.967 42.1247L167.233 42.2134C172.639 44.1643 177.115 47.1351 181.06 50.7267V57.4221C176.805 52.855 171.975 49.0861 165.903 46.8247C156.286 45.8493 146.182 47.8002 138.116 52.1456C128.987 57.0673 123.181 64.2948 120.832 73.6063L120.655 74.2714L120.123 74.7591C113.166 81.2771 104.169 84.2036 95.483 87.0414C85.9992 90.1452 77.0471 93.0716 70.6211 100.255C53.4704 119.543 37.4275 154.084 55.376 170.534L56.3953 171.465C67.6518 181.752 80.4152 193.414 81.3459 209.775C81.6561 215.096 81.6561 220.683 81.7004 226.048C81.789 242.099 81.8333 258.727 88.7911 272.916C92.6911 277.838 97.6102 282.493 104.258 287.548C116.933 297.214 129.563 304.176 141.794 308.211C146.802 309.851 151.987 310.827 157.483 311.846L159.255 312.157C167.587 313.709 174.545 313.753 181.06 312.201V317.079C177.824 317.788 174.456 318.143 170.911 318.143C167.055 318.098 162.889 317.699 158.413 316.857Z" fill="#F4F4F4"/>
<path d="M156.197 330.868L154.203 330.514C148.264 329.405 142.149 328.252 136.299 326.346C122.073 321.646 108.069 313.93 93.3998 302.757C85.6443 296.815 79.8831 291.361 75.2741 285.508L75.1412 285.331L75.0525 285.109C66.8095 268.349 66.7652 249.371 66.7209 231.014C66.7209 224.807 66.7209 218.954 66.4107 213.145C65.5686 197.138 52.7166 185.521 40.3078 174.303L39.2885 173.372C28.6967 163.794 26.0377 149.029 31.5774 130.628C35.7875 116.616 44.7839 101.009 55.5973 88.8149C63.5744 79.8582 74.565 76.311 85.2011 72.8524C94.4634 69.8373 103.238 67.0439 110.019 60.8806C112.988 49.6181 120.345 40.5284 131.291 34.5868C141.129 29.2216 153.494 26.8716 165.149 28.1574L165.415 28.2018L165.681 28.2905C171.708 30.5075 176.716 33.8773 181.104 37.9123V44.6077C176.406 39.5529 171.088 35.3849 164.352 32.8575C153.715 31.7934 142.503 33.9217 133.551 38.7991C123.447 44.2973 117.021 52.3229 114.45 62.7429L114.273 63.408L113.741 63.8957C106.075 71.0788 96.1918 74.2713 86.6193 77.3751C76.1604 80.745 66.2334 83.9818 59.1426 91.9631C40.1306 113.335 22.3594 151.601 42.4794 169.78L43.4987 170.711C56.6166 182.595 70.2219 194.877 71.1969 212.835C71.5071 218.732 71.5071 224.94 71.5514 230.925C71.5958 248.662 71.5958 267.018 79.2626 282.715C83.5614 288.169 89.0124 293.312 96.3691 298.943C110.418 309.674 124.378 317.345 137.894 321.823C143.434 323.641 149.107 324.705 155.178 325.814L157.172 326.168C166.346 327.898 174.013 327.898 181.192 326.213V331.09C177.602 331.844 173.924 332.243 170.069 332.243C165.681 332.243 161.161 331.8 156.197 330.868Z" fill="#F4F4F4"/>
<path d="M154.026 344.88L151.81 344.481C145.34 343.284 138.648 342.042 132.31 339.958C116.799 334.859 101.466 326.39 85.4229 314.197C76.9583 307.723 70.6653 301.737 65.6574 295.352L65.4802 295.175L65.3472 294.953C56.3951 276.685 56.3951 255.978 56.3951 235.936C56.3951 229.108 56.3951 222.634 56.0849 216.293C55.1542 198.646 40.9727 185.92 27.2344 173.638L26.1708 172.707C14.604 162.331 11.6791 146.28 17.7062 126.238C22.3152 110.941 32.1093 93.8698 43.942 80.612C52.6282 70.8572 64.5938 67.0439 76.2049 63.3193C86.3979 60.0381 96.0147 56.9343 103.504 50.1946C106.695 37.868 114.672 27.9358 126.594 21.4621C137.318 15.6092 150.791 13.0374 163.51 14.412L163.82 14.4563L164.086 14.545C170.822 17.0281 176.273 20.7083 181.059 25.1867V31.9707C175.919 26.4282 170.113 21.8612 162.712 19.1121C151.012 17.9149 138.692 20.2649 128.898 25.6301C117.819 31.6604 110.772 40.5727 107.98 52.0125L107.803 52.722L107.271 53.2097C98.9396 61.0579 88.1262 64.5165 77.6231 67.8863C66.1449 71.5666 55.2872 75.0695 47.4874 83.8045C36.0979 96.5745 26.6583 112.98 22.2709 127.613C18.4596 140.25 16.5983 157.72 29.3616 169.16L30.3809 170.091C44.8283 183.038 59.8076 196.429 60.8268 216.072C61.1814 222.59 61.1371 229.374 61.1371 235.98C61.1371 255.401 61.0927 275.443 69.4687 292.647C74.2106 298.633 80.1491 304.264 88.2149 310.428C103.815 322.355 118.705 330.514 133.684 335.48C139.711 337.475 145.96 338.628 152.563 339.87L154.824 340.269C164.795 342.131 173.215 342.175 181.015 340.313V345.19C177.115 346.033 173.127 346.432 168.872 346.432C164.307 346.388 159.388 345.855 154.026 344.88Z" fill="#F4F4F4"/>
<path d="M128.322 353.526L128.189 353.482C110.373 347.053 93.3114 337.652 77.4458 325.548C68.2722 318.542 61.4473 312.024 55.9963 305.151L55.819 304.974L55.6861 304.752C45.8034 284.577 45.9363 261.609 46.025 239.394C46.0693 232.433 46.0693 225.826 45.8477 219.308C44.6954 200.951 30.2924 187.649 16.3325 174.791C15.2688 173.815 14.2495 172.84 13.1859 171.909C0.466899 161.09 -2.67962 143.886 4.05659 122.159C8.9758 106.196 19.5676 87.5734 32.3309 72.3204L32.4196 72.1874C41.9921 62.1221 54.7111 57.9541 66.987 53.9192C78.1992 50.2389 88.791 46.7804 97.0784 39.2425C100.491 25.8518 109.088 15.0771 121.985 8.027C133.596 1.68634 148.132 -1.1071 161.914 0.400474L162.225 0.444813L162.491 0.533493C169.803 3.23825 175.786 7.22887 181.059 12.062V18.7573C175.431 12.9044 169.094 8.11568 161.117 5.14488C148.398 3.81467 134.97 6.43075 124.289 12.2393C112.191 18.846 104.568 28.5565 101.554 41.1048L101.377 41.8143L100.845 42.302C91.716 50.904 79.8833 54.806 68.4494 58.5306C56.1736 62.5212 44.6068 66.3344 35.8763 75.4685C23.5118 90.2782 13.2746 108.28 8.53263 123.622C2.32822 143.664 4.94293 158.695 16.2438 168.317L16.3325 168.406C17.3961 169.381 18.4153 170.357 19.479 171.332C34.1479 184.856 49.2601 198.823 50.501 219.087V219.131C50.7669 225.782 50.7226 232.699 50.7226 239.439C50.6339 260.988 50.501 283.291 59.8076 302.446C64.9484 308.964 71.463 315.128 80.2378 321.823C95.7045 333.618 112.323 342.796 129.651 349.048C137.141 351.265 144.808 353.039 152.519 354.236L152.652 354.28C162.535 356.453 172.063 356.453 180.971 354.369V359.246C179.553 359.557 178.134 359.823 176.672 360H157.616C155.666 359.734 153.671 359.379 151.677 358.936C143.877 357.606 135.989 355.788 128.322 353.526Z" fill="#F4F4F4"/>
</svg>
